HIERARCHY
ROOT root
{
	OFFSET	0	13.1	24.9
	CHANNELS 6  Xposition Yposition Zposition Xrotation Yrotation Zrotation
	JOINT spine_1
	{
		OFFSET	0	9.99999	0
		CHANNELS 3  Xrotation Yrotation Zrotation
		JOINT spine_2
		{
			OFFSET	0	112	-10
			CHANNELS 3  Xrotation Yrotation Zrotation
			JOINT spine_3
			{
				OFFSET	0	206.5	19.3
				CHANNELS 3  Xrotation Yrotation Zrotation
				JOINT spine_4
				{
					OFFSET	0	110.4	14.6
					CHANNELS 3  Xrotation Yrotation Zrotation
					JOINT neck_1
					{
						OFFSET	0	71.8	-50.3
						CHANNELS 3  Xrotation Yrotation Zrotation
						JOINT neck_2
						{
							OFFSET	0	86.2	-25.8
							CHANNELS 3  Xrotation Yrotation Zrotation
							JOINT head_ee
							{
								OFFSET	0	179.8	-8.7
								CHANNELS 3  Xrotation Yrotation Zrotation
								End Site
								{
									OFFSET	1	0	0
								}
							}
						}
					}
					JOINT left_clavicle
					{
						OFFSET	-43.2	22.4	-70.8
						CHANNELS 3  Xrotation Yrotation Zrotation
						JOINT left_shoulder
						{
							OFFSET	-93.9	-5.79999	48.7
							CHANNELS 3  Xrotation Yrotation Zrotation
							JOINT left_elbow
							{
								OFFSET	-291.4	-30.8	15.2
								CHANNELS 3  Xrotation Yrotation Zrotation
								JOINT left_lowarm_twist
								{
									OFFSET	-110.7	-3.89999	13.6
									CHANNELS 3  Xrotation Yrotation Zrotation
									JOINT left_hand
									{
										OFFSET	-110.7	-3.89999	13.6
										CHANNELS 3  Xrotation Yrotation Zrotation
										JOINT left_ee
										{
											OFFSET	-80.8	-5.10001	12.1
											CHANNELS 3  Xrotation Yrotation Zrotation
											End Site
											{
												OFFSET	1	0	0
											}
										}
									}
								}
							}
						}
					}
					JOINT right_clavicle
					{
						OFFSET	43.2	22.4	-70.8
						CHANNELS 3  Xrotation Yrotation Zrotation
						JOINT right_shoulder
						{
							OFFSET	93.9	-5.79999	48.7
							CHANNELS 3  Xrotation Yrotation Zrotation
							JOINT right_elbow
							{
								OFFSET	291.4	-30.8	15.2
								CHANNELS 3  Xrotation Yrotation Zrotation
								JOINT right_lowarm_twist
								{
									OFFSET	110.7	-3.89999	13.6
									CHANNELS 3  Xrotation Yrotation Zrotation
									JOINT right_hand
									{
										OFFSET	110.7	-3.89999	13.6
										CHANNELS 3  Xrotation Yrotation Zrotation
										JOINT right_ee
										{
											OFFSET	80.8	-5.10001	12.1
											CHANNELS 3  Xrotation Yrotation Zrotation
											End Site
											{
												OFFSET	1	0	0
											}
										}
									}
								}
							}
						}
					}
				}
			}
		}
	}
	JOINT left_hip
	{
		OFFSET	-82.8	-127.5	0.300001
		CHANNELS 3  Xrotation Yrotation Zrotation
		JOINT left_knee
		{
			OFFSET	-28.2	-396.7	2.2
			CHANNELS 3  Xrotation Yrotation Zrotation
			JOINT left_ankle
			{
				OFFSET	-11.7	-411.3	35.4
				CHANNELS 3  Xrotation Yrotation Zrotation
				JOINT left_toes
				{
					OFFSET	0	-60	-88.6
					CHANNELS 3  Xrotation Yrotation Zrotation
					JOINT left_foot_ee
					{
						OFFSET	-22.5	-16.5	-42.2
						CHANNELS 3  Xrotation Yrotation Zrotation
						End Site
						{
							OFFSET	1	0	0
						}
					}
				}
			}
		}
	}
	JOINT right_hip
	{
		OFFSET	82.8	-127.5	0.300001
		CHANNELS 3  Xrotation Yrotation Zrotation
		JOINT right_knee
		{
			OFFSET	28.2	-396.7	2.2
			CHANNELS 3  Xrotation Yrotation Zrotation
			JOINT right_ankle
			{
				OFFSET	11.7	-411.3	35.4
				CHANNELS 3  Xrotation Yrotation Zrotation
				JOINT right_toes
				{
					OFFSET	0	-60	-88.6
					CHANNELS 3  Xrotation Yrotation Zrotation
					JOINT right_foot_ee
					{
						OFFSET	22.5	-16.5	-42.2
						CHANNELS 3  Xrotation Yrotation Zrotation
						End Site
						{
							OFFSET	1	0	0
						}
					}
				}
			}
		}
	}
}
MOTION
Frames: 9
Frame Time: 0.02
1312.57 682.685 -664.883 174.996 -62.7213 170.188 -0.0263324 0.488937 3.18347 -0.0207401 0.285481 3.2081 -0.001755 -0.395519 3.19641 -0.0159931 0.113987 3.21875 -24.071 12.3694 4.72772 -24.9545 21.7941 10.6447 -0.0 0.0 -0.0 -4.20067 19.7702 -3.91308 13.1494 -18.0206 64.6294 3.80961 -62.0643 2.29249 -9.47913 -0.428769 1.13212 2.16297 -15.2626 8.04037 -0.0 0.0 -0.0 10.4568 19.1857 -20.4849 -19.832 25.3918 -65.3494 0.275395 7.76867 -0.018699 61.8842 1.94452 7.27898 0.319916 -26.4977 -12.2782 0.0 0.0 0.0 -17.9638 32.0739 11.3979 -26.9053 0.150104 4.0884 38.2309 -4.78892 -4.77288 -18.734 0.0 0.0 -0.0 0.0 -0.0 39.71 33.3865 -15.4804 -13.9814 -0.318776 -2.11663 30.5732 -17.5522 4.02911 -16.1022 0.0 0.0 0.0 0.0 0.0 
1329.21 689.484 -662.262 174.25 -64.4328 169.908 -0.104877 0.529017 3.17119 -0.0993419 0.32626 3.19838 -0.0779671 -0.357798 3.19501 -0.0921794 0.151016 3.21142 -23.8546 12.4109 4.11845 -24.7737 22.1238 10.0672 -0.0 0.0 -0.0 -3.97856 20.4387 -3.43067 12.981 -18.4179 66.0313 3.37215 -59.0798 1.91134 -10.2439 -0.471444 1.22015 2.13136 -15.0624 7.91803 -0.0 0.0 -0.0 10.5587 20.5071 -20.6205 -18.121 24.6391 -65.9781 0.310657 8.74882 -0.0237643 62.615 2.01218 7.3438 0.344692 -28.528 -13.0919 0.0 0.0 0.0 -17.6719 31.3594 9.36393 -26.873 0.151079 4.08353 35.8334 -5.76502 -4.56555 -19.5632 0.0 0.0 -0.0 0.0 -0.0 39.4802 34.7052 -15.518 -15.4467 -0.322073 -2.34143 31.1155 -17.0432 4.08103 -15.5612 0.0 0.0 0.0 0.0 0.0 
1347.88 692.602 -655.69 173.101 -65.2194 169.159 -0.188277 0.605711 3.11841 -0.182959 0.406153 3.15059 -0.157315 -0.273856 3.16482 -0.171217 0.229147 3.16836 -23.4809 12.4685 3.44419 -24.4297 22.5096 9.40202 -0.0 0.0 -0.0 -3.89027 21.7535 -3.00676 12.5943 -18.8364 67.0039 2.95112 -55.6151 1.5567 -10.7721 -0.501611 1.28062 2.17218 -15.5667 7.9632 -0.0 0.0 -0.0 11.0162 21.5256 -21.5749 -16.1467 24.3519 -66.0371 0.338794 9.52728 -0.0282329 63.1506 2.0623 7.39076 0.3778 -29.3655 -13.5468 0.0 0.0 0.0 -16.8809 30.9295 7.46925 -27.7753 0.122828 4.21912 35.5429 -6.53681 -4.55029 -19.8934 0.0 0.0 -0.0 0.0 -0.0 38.4709 35.3184 -15.5004 -16.4746 -0.320955 -2.49912 31.7682 -16.5973 4.14514 -15.0177 0.0 0.0 0.0 0.0 0.0 
1369.75 690.588 -650.826 173.8 -66.6526 169.377 -0.236516 0.653008 3.10408 -0.23127 0.454263 3.1393 -0.202952 -0.226892 3.16384 -0.216814 0.27537 3.16 -23.1527 12.4939 2.93925 -24.1156 22.7676 8.88222 -0.0 0.0 -0.0 -4.29918 21.9569 -3.54566 12.0281 -19.025 67.5421 2.69294 -53.1346 1.34679 -11.1312 -0.522436 1.32158 2.18244 -15.6938 7.97416 -0.0 0.0 -0.0 11.1767 22.277 -21.876 -14.8596 24.1176 -66.2307 0.363514 10.2083 -0.0324694 63.5244 2.09754 7.42326 0.412974 -29.85 -13.895 0.0 0.0 0.0 -17.5801 30.3965 7.13495 -28.0913 0.112428 4.2665 34.556 -7.19845 -4.4657 -20.2862 0.0 0.0 -0.0 0.0 -0.0 38.2648 36.5318 -14.5893 -17.1804 -0.318549 -2.60739 32.0976 -16.3249 4.17655 -14.7294 0.0 0.0 0.0 0.0 0.0 
1388.96 693.534 -643.382 173.719 -67.4976 169.321 -0.311487 0.688516 3.03389 -0.306502 0.49416 3.0715 -0.276553 -0.177354 3.10591 -0.289875 0.315151 3.09497 -23.0766 12.5047 2.69372 -24.0513 22.8949 8.64824 -0.0 0.0 -0.0 -4.24926 22.8632 -3.26083 10.5167 -18.9778 68.1689 2.44849 -50.4879 1.1546 -11.4059 -0.538537 1.35281 2.17567 -15.4862 8.02369 -0.0 0.0 -0.0 11.5406 22.9545 -22.6436 -13.7867 24.031 -66.4769 0.373623 10.486 -0.0342851 63.7594 2.11981 7.44358 0.452286 -29.7681 -14.0857 0.0 0.0 0.0 -16.7086 30.2729 6.14962 -28.3491 0.103749 4.30512 33.4609 -7.32758 -4.35888 -20.6249 0.0 0.0 -0.0 0.0 -0.0 36.7649 36.9159 -13.9549 -18.5751 -0.309874 -2.8212 32.3555 -16.4994 4.20621 -14.5356 0.0 0.0 0.0 0.0 0.0 
1412.24 697.332 -637.812 173.094 -67.6807 168.242 -0.391127 0.930833 3.03108 -0.386317 0.736166 3.0841 -0.342782 0.0529893 3.17022 -0.35638 0.552755 3.12216 -21.5534 12.558 1.59137 -22.4926 23.4533 7.31824 -0.0 0.0 -0.0 -4.50383 23.6541 -3.42537 9.35569 -19.0724 68.4021 2.26948 -48.3404 1.01863 -11.7281 -0.557618 1.38936 2.21877 -15.4267 8.34252 -0.0 0.0 -0.0 12.0351 24.0458 -23.6693 -13.0122 23.6342 -66.6923 0.4011 11.2381 -0.039463 63.9429 2.13725 7.45938 0.529299 -29.1798 -14.3282 0.0 0.0 0.0 -14.703 30.3078 5.06618 -29.3022 0.0701624 4.44752 31.7528 -7.40631 -4.18492 -21.2236 0.0 0.0 -0.0 0.0 -0.0 34.2413 37.6229 -12.4141 -18.499 -0.310482 -2.80954 32.6101 -16.2255 4.22933 -14.3732 0.0 0.0 0.0 0.0 0.0 
1435.78 699.151 -637.294 172.298 -68.1431 166.846 -0.557815 0.968331 3.06448 -0.552921 0.771466 3.11981 -0.506621 0.0706038 3.21292 -0.520561 0.576881 3.16154 -20.3836 12.5766 0.899332 -21.2766 23.79 6.42238 -0.0 0.0 -0.0 -4.84977 24.4047 -3.71205 7.57803 -19.1533 69.4614 2.097 -46.0844 0.892027 -11.999 -0.573821 1.42001 2.25419 -15.2689 8.65475 -0.0 0.0 -0.0 12.2489 24.4658 -24.1167 -13.9205 23.0083 -66.2428 0.407079 11.4013 -0.0406368 64.0408 2.14658 7.46779 0.616328 -28.2333 -14.5209 0.0 0.0 0.0 -14.5622 30.1345 4.77199 -31.2518 -0.00591302 4.73704 30.8168 -7.51366 -4.08804 -21.536 0.0 0.0 -0.0 0.0 -0.0 31.6308 38.0715 -10.7176 -19.5916 -0.300275 -2.97686 32.6825 -16.4722 4.2403 -14.2641 0.0 0.0 0.0 0.0 0.0 
1458.61 705.966 -634.098 168.544 -68.9705 162.197 -0.525274 0.674855 3.1802 -0.519771 0.47123 3.21665 -0.489249 -0.243052 3.24186 -0.503811 0.271713 3.23958 -18.897 13.3955 3.39656 -19.6621 24.0161 8.71631 -0.0 0.0 -0.0 -4.87981 23.5003 -3.98485 5.77556 -18.1301 69.8905 1.70328 -40.1527 0.622555 -11.8304 -0.563718 1.40094 2.2416 -14.737 8.81347 -0.0 0.0 -0.0 13.1714 26.0327 -26.0696 -16.1694 22.6363 -65.5607 0.313314 8.82248 -0.0241701 63.852 2.12861 7.45156 0.748916 -27.6469 -15.0918 0.0 0.0 0.0 -14.292 29.0841 4.20968 -35.0758 -0.183571 5.29677 29.1509 -7.51994 -3.90794 -21.7642 0.0 0.0 -0.0 0.0 -0.0 30.2112 38.8065 -9.68548 -25.5803 -0.187823 -3.88855 33.6397 -18.7119 4.37553 -12.1613 0.0 0.0 0.0 0.0 0.0 
1481.84 707.582 -630.566 166.889 -69.3263 160.209 -0.572481 0.610053 3.21304 -0.566829 0.404474 3.2453 -0.539812 -0.317445 3.25495 -0.554539 0.200316 3.26424 -18.3474 13.649 5.24754 -18.9837 23.4764 10.371 -0.0 0.0 -0.0 -4.95564 23.443 -4.10511 2.75532 -17.4658 70.3921 1.44852 -35.6593 0.465918 -11.8466 -0.564683 1.40277 2.27014 -13.3624 9.63412 -0.0 0.0 -0.0 13.836 26.6878 -27.5333 -16.9382 22.5802 -64.8078 0.254151 7.1759 -0.0159362 63.5997 2.10467 7.42978 0.796199 -27.7185 -15.3833 0.0 0.0 0.0 -13.4997 27.289 3.54161 -38.1851 -0.355359 5.74252 26.2321 -6.86505 -3.56881 -22.2036 0.0 0.0 -0.0 0.0 -0.0 29.0764 38.9885 -9.38587 -29.934 -0.0465874 -4.54163 35.876 -19.8765 4.62716 -10.5654 0.0 0.0 0.0 0.0 0.0 
